<?xml version="1.0" encoding="UTF-8" standalone="no"?>
<!-- Created with Inkscape (http://www.inkscape.org/) -->

<svg
   width="294.70078mm"
   height="360.97104mm"
   viewBox="0 0 294.70077 360.97103"
   version="1.1"
   id="svg1"
   inkscape:version="1.3 (0e150ed6c4, 2023-07-21)"
   sodipodi:docname="Ch3_bs.svg"
   xml:space="preserve"
   inkscape:export-filename="Ch3_bs_1.pdf"
   inkscape:export-xdpi="300"
   inkscape:export-ydpi="300"
   xmlns:inkscape="http://www.inkscape.org/namespaces/inkscape"
   xmlns:sodipodi="http://sodipodi.sourceforge.net/DTD/sodipodi-0.dtd"
   xmlns="http://www.w3.org/2000/svg"
   xmlns:svg="http://www.w3.org/2000/svg"><sodipodi:namedview
     id="namedview1"
     pagecolor="#ffffff"
     bordercolor="#000000"
     borderopacity="0.25"
     inkscape:showpageshadow="2"
     inkscape:pageopacity="0.0"
     inkscape:pagecheckerboard="0"
     inkscape:deskcolor="#d1d1d1"
     inkscape:document-units="mm"
     inkscape:zoom="0.60104078"
     inkscape:cx="1129.707"
     inkscape:cy="1225.3744"
     inkscape:window-width="3840"
     inkscape:window-height="2054"
     inkscape:window-x="3229"
     inkscape:window-y="1107"
     inkscape:window-maximized="1"
     inkscape:current-layer="g1-6"
     showguides="true"><sodipodi:guide
       position="-263.03714,447.71825"
       orientation="0.70710678,0.70710678"
       id="guide1"
       inkscape:locked="false"
       inkscape:label=""
       inkscape:color="rgb(0,134,229)" /><sodipodi:guide
       position="-263.02914,447.71025"
       orientation="0,-1"
       id="guide3"
       inkscape:locked="false" /><sodipodi:guide
       position="-288.30966,472.99077"
       orientation="1,0"
       id="guide4"
       inkscape:locked="false" /><sodipodi:guide
       position="-303.28899,499.08653"
       orientation="0,-1"
       id="guide18"
       inkscape:locked="false" /><sodipodi:guide
       position="-320.12303,490.61251"
       orientation="1,0"
       id="guide208"
       inkscape:locked="false" /><sodipodi:guide
       position="-205.94296,431.73461"
       orientation="1,0"
       id="guide209"
       inkscape:locked="false" /><inkscape:page
       x="2.0577047e-05"
       y="-1.4631863e-05"
       width="294.70078"
       height="360.97104"
       id="page4572"
       margin="0"
       bleed="0" /></sodipodi:namedview><defs
     id="defs1"><linearGradient
       id="swatch33"
       inkscape:swatch="solid"><stop
         style="stop-color:#9955ff;stop-opacity:1;"
         offset="0"
         id="stop33" /></linearGradient><clipPath
       clipPathUnits="userSpaceOnUse"
       id="clipPath3"><path
         d="M 0,0 H 1050 V 1153 H 0 Z"
         id="path3-5" /></clipPath><clipPath
       clipPathUnits="userSpaceOnUse"
       id="clipPath5"><path
         d="M 0,0 H 1050 V 1153 H 0 Z"
         id="path5-5" /></clipPath><clipPath
       clipPathUnits="userSpaceOnUse"
       id="clipPath16-8"><path
         d="M 0,0 H 1050 V 1153 H 0 Z"
         transform="scale(1.000142,1)"
         id="path16-5" /></clipPath><clipPath
       clipPathUnits="userSpaceOnUse"
       id="clipPath48-4"><path
         d="M 0,0 H 1050 V 1153 H 0 Z"
         transform="scale(1.000142,1)"
         id="path48-8" /></clipPath><clipPath
       clipPathUnits="userSpaceOnUse"
       id="clipPath56-1"><path
         d="M 0,0 H 1050 V 1153 H 0 Z"
         transform="scale(1.000142,1)"
         id="path56-6" /></clipPath></defs><g
     id="g1-6"
     inkscape:groupmode="layer"
     inkscape:label="1"
     transform="matrix(0.26458333,0,0,0.26458332,-34.77648,-45.781703)"><path
       id="path1"
       d="M 224.629,416.406 327.434,315.141 c 12.921,-12.731 30.129,-19.84 48.023,-19.84 h 281.641 c 15.402,0 36.941,8.84 48.105,19.758 27.442,26.836 76.199,74.539 103.637,101.386 11.156,10.918 20.203,32.61 20.203,48.453 v 231.161 c 0,18.265 7.512,35.675 20.676,47.933 l 23.398,21.789 c 13.164,12.254 20.676,29.668 20.676,47.93 v 256.394 c 0,7.602 -2.941,14.895 -8.172,20.266 -5.23,5.371 -12.324,8.379 -19.715,8.367 l -699.347,-1.289 c -15.411,-0.027 -27.887,-12.883 -27.887,-28.734 l 0.019,-254.996 c 0,-18.332 7.231,-35.883 20.036,-48.633 l 25.726,-25.621 c 12.809,-12.75 20.039,-30.301 20.039,-48.633 V 464.926 c 0,-18.321 7.274,-35.848 20.137,-48.52 z"
       style="fill:#cdcdcd;fill-opacity:0.3;fill-rule:nonzero;stroke:none"
       transform="scale(1.3333333)" /><path
       id="path2-2"
       d="M 231.045,416.406 336.786,315.141 c 13.29,-12.731 30.989,-19.84 49.395,-19.84 h 289.684 c 15.842,0 37.997,8.84 49.48,19.758 28.225,26.836 78.375,74.539 106.596,101.386 11.475,10.918 20.781,32.61 20.781,48.453 v 231.161 c 0,18.265 7.726,35.675 21.266,47.933 l 24.067,21.789 c 13.54,12.254 21.266,29.668 21.266,47.93 v 256.394 c 0,7.602 -3.026,14.895 -8.405,20.266 -5.38,5.371 -12.677,8.379 -20.278,8.367 l -719.322,-1.289 c -15.851,-0.027 -28.683,-12.883 -28.683,-28.734 l 0.02,-254.996 c 0,-18.332 7.437,-35.883 20.607,-48.633 l 26.461,-25.621 c 13.175,-12.75 20.612,-30.301 20.612,-48.633 V 464.926 c 0,-18.321 7.481,-35.848 20.712,-48.52 z"
       style="fill:none;stroke:#ff0000;stroke-width:1.11661;stroke-linecap:round;stroke-linejoin:round;stroke-miterlimit:4;stroke-dasharray:13.3992, 4.46638;stroke-dashoffset:0;stroke-opacity:1"
       transform="scale(1.2963093,1.3333333)" /><g
       opacity="0.5"
       id="g4-8"><path
         d="m 248.414,823.516 h 616.332 c 10.02,0 18.09,13.738 18.09,30.8 v 66.082 c 0,17.063 -8.07,30.801 -18.09,30.801 H 248.414 c -10.023,0 -18.09,-13.738 -18.09,-30.801 v -66.082 c 0,-17.062 8.067,-30.8 18.09,-30.8 z"
         style="fill:#ffe680;fill-opacity:1;fill-rule:nonzero;stroke:none"
         transform="scale(1.3333333)"
         clip-path="url(#clipPath3)"
         id="path4-7" /></g><g
       opacity="0.727273"
       id="g6"><path
         d="m 175.387,958.965 h 599.765 c 14.61,0 26.371,11.762 26.371,26.375 v 74.933 c 0,14.61 -11.761,26.375 -26.371,26.375 H 175.387 c -14.61,0 -26.371,-11.765 -26.371,-26.375 V 985.34 c 0,-14.613 11.761,-26.375 26.371,-26.375 z"
         style="fill:#d5f6ff;fill-opacity:1;fill-rule:nonzero;stroke:none"
         transform="scale(1.3333333)"
         clip-path="url(#clipPath5)"
         id="path6" /></g><path
       id="path7-9"
       d="M 6.4918452,7.4879095 V -30.873022 H 10.089501 V 7.4879095 Z m 0,0"
       style="fill:#000000;fill-opacity:1;fill-rule:nonzero;stroke:none"
       aria-label="∣"
       transform="matrix(0,-1.3333333,1.3331435,0,1136.541,1232.0581)" /><text
       id="text7"
       xml:space="preserve"
       transform="matrix(0,-1.3333333,1.3331435,0,1136.541,1212.1454)"><tspan
         style="font-variant:normal;font-weight:normal;font-size:40.039px;font-family:'Comic Sans MS';writing-mode:lr-tb;fill:#000000;fill-opacity:1;fill-rule:nonzero;stroke:none"
         x="0"
         y="0"
         id="tspan7-3">Ψ</tspan></text><text
       id="text8-7"
       xml:space="preserve"
       transform="matrix(0,-1.3333333,1.3331435,0,1115.1899,1176.1444)"><tspan
         style="font-variant:normal;font-weight:700;font-size:26.0253px;font-family:Calibri;writing-mode:lr-tb;fill:#000000;fill-opacity:1;fill-rule:nonzero;stroke:none"
         x="0"
         y="0"
         id="tspan8-0">+</tspan></text><path
       id="path8-4"
       d="m 5.4481878,-28.271089 8.1679692,18.4244986 v 1.7932241 L 5.4481878,10.406294 1.8036566,9.1287682 8.2841253,-8.9323977 1.8036566,-27.028725 Z m 0,0"
       style="fill:#000000;fill-opacity:1;fill-rule:nonzero;stroke:none"
       aria-label="⟩"
       transform="matrix(0,-1.3333333,1.3331435,0,1136.541,1158.8619)" /><path
       id="path9-5"
       d="M 6.491089,7.4904504 V -30.870481 h 3.597656 V 7.4904504 Z m 0,0"
       style="fill:#000000;fill-opacity:1;fill-rule:nonzero;stroke:none"
       aria-label="∣"
       transform="matrix(0,-1.3333333,1.3331435,0,274.01416,1409.3267)" /><text
       id="text9"
       xml:space="preserve"
       transform="matrix(0,-1.3333333,1.3331435,0,274.01416,1389.4139)"><tspan
         style="font-variant:normal;font-weight:normal;font-size:40.039px;font-family:'Comic Sans MS';writing-mode:lr-tb;fill:#000000;fill-opacity:1;fill-rule:nonzero;stroke:none"
         x="0"
         y="0"
         id="tspan9">Ψ</tspan></text><text
       id="text10"
       xml:space="preserve"
       transform="matrix(0,-1.3333333,1.3331435,0,252.66305,1353.4129)"><tspan
         style="font-variant:normal;font-weight:700;font-size:26.0253px;font-family:Calibri;writing-mode:lr-tb;fill:#000000;fill-opacity:1;fill-rule:nonzero;stroke:none"
         x="0"
         y="0"
         id="tspan10">-</tspan></text><path
       id="path10-3"
       d="M 5.4493759,-28.268526 13.617345,-9.8440272 V -8.050803 L 5.4493759,10.408857 1.8048446,9.1313314 8.2853134,-8.9298345 1.8048446,-27.026162 Z m 0,0"
       style="fill:#000000;fill-opacity:1;fill-rule:nonzero;stroke:none"
       aria-label="⟩"
       transform="matrix(0,-1.3333333,1.3331435,0,274.01413,1342.7893)" /><path
       id="path13-1"
       d="M 1064.4274,238.28854 337.52675,965.29735"
       style="fill:#4d4d4d;fill-opacity:1;fill-rule:nonzero;stroke:#4d4d4d;stroke-width:7.56585;stroke-linecap:butt;stroke-linejoin:round;stroke-miterlimit:4;stroke-dasharray:none;stroke-opacity:1" /><path
       id="path14-6"
       d="M 309.14411,238.28819 1036.0475,965.29731"
       style="fill:none;stroke:#4d4d4d;stroke-width:7.56588;stroke-linecap:butt;stroke-linejoin:round;stroke-miterlimit:4;stroke-dasharray:none;stroke-opacity:1" /><path
       id="path15-6"
       d="m 464.336,-56.551 48.408,-10e-4 c 3.18,0 5.742,2.562 5.742,5.742 V -2.4 c -0.002,3.181 -2.563,5.742 -5.743,5.743 L 464.334,3.342 c -3.18,0 -5.743,-2.562 -5.743,-5.742 l 0.002,-48.408 c -0.002,-3.182 2.559,-5.743 5.743,-5.743 z"
       style="fill:#afe9dd;fill-opacity:1;fill-rule:nonzero;stroke:#ffffff;stroke-width:1.00317;stroke-linecap:butt;stroke-linejoin:round;stroke-miterlimit:4;stroke-dasharray:none;stroke-opacity:1"
       transform="matrix(1.333144,1.3333333,-1.333144,1.3333333,0,0)" /><g
       opacity="0.5"
       id="g17-1"><path
         d="M 515.144,405.508 V 518.359"
         style="fill:none;stroke:#ffffff;stroke-width:5.67482;stroke-linecap:butt;stroke-linejoin:round;stroke-miterlimit:4;stroke-dasharray:none;stroke-opacity:1"
         transform="scale(1.333144,1.3333333)"
         clip-path="url(#clipPath16-8)"
         id="path17-03" /></g><text
       id="text17-15"
       xml:space="preserve"
       transform="matrix(1.3333333,0,0,1.3335232,322.51708,1075.0112)"><tspan
         style="font-variant:normal;font-weight:700;font-size:56.0467px;font-family:Calibri;writing-mode:lr-tb;fill:#000000;fill-opacity:1;fill-rule:nonzero;stroke:none"
         x="0"
         y="0"
         id="tspan17-76">D</tspan></text><text
       id="text18-8"
       xml:space="preserve"
       transform="matrix(1.3333333,0,0,1.3335232,369.62407,1089.9591)"><tspan
         style="font-variant:normal;font-weight:700;font-size:36.4304px;font-family:Calibri;writing-mode:lr-tb;fill:#000000;fill-opacity:1;fill-rule:nonzero;stroke:none"
         x="0"
         y="0"
         id="tspan18-6">1</tspan></text><text
       id="text19-0"
       xml:space="preserve"
       transform="matrix(1.3333333,0,0,1.3335232,566.32696,1075.2666)"><tspan
         style="font-variant:normal;font-weight:700;font-size:56.0467px;font-family:Calibri;writing-mode:lr-tb;fill:#000000;fill-opacity:1;fill-rule:nonzero;stroke:none"
         x="0"
         y="0"
         id="tspan19-5">D</tspan></text><text
       id="text20-8"
       xml:space="preserve"
       transform="matrix(1.3333333,0,0,1.3335232,613.43395,1090.2145)"><tspan
         style="font-variant:normal;font-weight:700;font-size:36.4304px;font-family:Calibri;writing-mode:lr-tb;fill:#000000;fill-opacity:1;fill-rule:nonzero;stroke:none"
         x="0"
         y="0"
         id="tspan20-8">2</tspan></text><text
       id="text21-3"
       xml:space="preserve"
       transform="matrix(1.3333333,0,0,1.3335232,768.44957,1074.8468)"><tspan
         style="font-variant:normal;font-weight:700;font-size:56.0467px;font-family:Calibri;writing-mode:lr-tb;fill:#000000;fill-opacity:1;fill-rule:nonzero;stroke:none"
         x="0"
         y="0"
         id="tspan21-3">D</tspan></text><text
       id="text22-3"
       xml:space="preserve"
       transform="matrix(1.3333333,0,0,1.3335232,815.55657,1089.7947)"><tspan
         style="font-variant:normal;font-weight:700;font-size:36.4304px;font-family:Calibri;writing-mode:lr-tb;fill:#000000;fill-opacity:1;fill-rule:nonzero;stroke:none"
         x="0"
         y="0"
         id="tspan22-5">3</tspan></text><text
       id="text23"
       xml:space="preserve"
       transform="matrix(1.3333333,0,0,1.3335232,990.78091,1074.8468)"><tspan
         style="font-variant:normal;font-weight:700;font-size:56.0467px;font-family:Calibri;writing-mode:lr-tb;fill:#000000;fill-opacity:1;fill-rule:nonzero;stroke:none"
         x="0"
         y="0"
         id="tspan23-0">D</tspan></text><text
       id="text24"
       xml:space="preserve"
       transform="matrix(1.3333333,0,0,1.3335232,1037.8879,1089.7947)"><tspan
         style="font-variant:normal;font-weight:700;font-size:36.4304px;font-family:Calibri;writing-mode:lr-tb;fill:#000000;fill-opacity:1;fill-rule:nonzero;stroke:none"
         x="0"
         y="0"
         id="tspan24">4</tspan></text><path
       id="path24-9"
       d="m 264.495,814.59 v 257.57"
       style="fill:none;stroke:#b3b3b3;stroke-width:1.4187;stroke-linecap:butt;stroke-linejoin:round;stroke-miterlimit:4;stroke-dasharray:8.51226, 8.51226;stroke-dashoffset:0;stroke-opacity:1"
       transform="scale(1.333144,1.3333333)" /><path
       id="path25-1"
       d="M 432.136,814.59 V 988.383"
       style="fill:none;stroke:#b3b3b3;stroke-width:1.4187;stroke-linecap:butt;stroke-linejoin:round;stroke-miterlimit:4;stroke-dasharray:8.51223, 8.51223;stroke-dashoffset:0;stroke-opacity:1"
       transform="scale(1.333144,1.3333333)" /><path
       id="path26-5"
       d="M 599.972,814.59 V 988.418"
       style="fill:none;stroke:#b3b3b3;stroke-width:1.41871;stroke-linecap:butt;stroke-linejoin:round;stroke-miterlimit:4;stroke-dasharray:8.51223, 8.51223;stroke-dashoffset:0;stroke-opacity:1"
       transform="scale(1.333144,1.3333333)" /><path
       id="path27-6"
       d="m 767.601,814.59 v 254.226"
       style="fill:none;stroke:#b3b3b3;stroke-width:1.4187;stroke-linecap:butt;stroke-linejoin:round;stroke-miterlimit:4;stroke-dasharray:8.51223, 8.51223;stroke-dashoffset:0;stroke-opacity:1"
       transform="scale(1.333144,1.3333333)" /><text
       id="text27-3"
       xml:space="preserve"
       transform="scale(0.9999288,1.0000712)"
       x="646.7243"
       y="765.17896"
       style="font-size:16.0011px;stroke-width:1.33343"><tspan
         style="font-variant:normal;font-weight:700;font-size:74.7343px;font-family:Calibri;writing-mode:lr-tb;fill:#000000;fill-opacity:1;fill-rule:nonzero;stroke:none;stroke-width:1.33343"
         x="646.7243 688.61639"
         y="765.17896"
         sodipodi:role="line"
         id="tspan27-1">BS</tspan></text><text
       id="text29-2"
       xml:space="preserve"
       transform="matrix(1.3333333,0,0,1.3335232,348.79253,736.7194)"><tspan
         style="font-variant:normal;font-weight:700;font-size:56.0467px;font-family:Calibri;writing-mode:lr-tb;fill:#000000;fill-opacity:1;fill-rule:nonzero;stroke:none"
         x="0 29.829563 61.246384"
         y="0"
         sodipodi:role="line"
         id="tspan29-1">PBS</tspan><tspan
         style="font-variant:normal;font-weight:700;font-size:56.0467px;font-family:Calibri;writing-mode:lr-tb;fill:#000000;fill-opacity:1;fill-rule:nonzero;stroke:none"
         x="416.9801 446.80966 478.2265"
         y="-3.9808819"
         sodipodi:role="line"
         id="tspan30-5">PBS</tspan></text><path
       id="path30-0"
       d="M 599.773,921.281 H 767.414"
       style="fill:none;stroke:#2a7fff;stroke-width:5.67482;stroke-linecap:butt;stroke-linejoin:round;stroke-miterlimit:4;stroke-dasharray:39.7237, 90.7971;stroke-dashoffset:2.8374;stroke-opacity:1"
       transform="scale(1.333144,1.3333333)" /><path
       id="path31-8"
       d="m 613.871,921.281 c 0,7.832 -6.351,14.188 -14.183,14.188 -7.829,0 -14.184,-6.356 -14.184,-14.188 0,-7.832 6.523,-14.187 14.184,-14.187 7.832,0 14.183,6.355 14.183,14.187 z"
       style="fill:#2a7fff;fill-opacity:1;fill-rule:evenodd;stroke:none"
       transform="scale(1.3333333)" /><path
       id="path32-7"
       d="m 781.488,921.281 c 0,7.832 -6.355,14.188 -14.183,14.188 -7.832,0 -14.188,-6.356 -14.188,-14.188 0,-7.832 6.528,-14.187 14.188,-14.187 7.828,0 14.183,6.355 14.183,14.187 z"
       style="fill:#2a7fff;fill-opacity:1;fill-rule:evenodd;stroke:none"
       transform="scale(1.3333333)" /><text
       id="text32-7"
       xml:space="preserve"
       transform="matrix(1.3333333,0,0,1.3335232,851.97641,1244.2411)"><tspan
         style="font-variant:normal;font-weight:700;font-size:56.0467px;font-family:Calibri;writing-mode:lr-tb;fill:#000000;fill-opacity:1;fill-rule:nonzero;stroke:none"
         x="0"
         y="0"
         id="tspan32-1">M</tspan></text><text
       id="text33"
       xml:space="preserve"
       transform="matrix(1.3333333,0,0,1.3335232,917.29129,1259.189)"><tspan
         style="font-variant:normal;font-weight:700;font-size:36.4304px;font-family:Calibri;writing-mode:lr-tb;fill:#000000;fill-opacity:1;fill-rule:nonzero;stroke:none"
         x="0 18.464224"
         y="0"
         sodipodi:role="line"
         id="tspan33">34</tspan></text><path
       id="path33-9"
       d="M 263.373,852.977 H 432.136"
       style="fill:none;stroke:#9955ff;stroke-width:5.67482;stroke-linecap:butt;stroke-linejoin:round;stroke-miterlimit:4;stroke-dasharray:39.7237, 90.7971;stroke-dashoffset:2.83739;stroke-opacity:1"
       transform="scale(1.333144,1.3333333)" /><path
       id="path34-5"
       d="m 277.52,852.977 c 0,7.832 -6.352,14.187 -14.184,14.187 -7.828,0 -14.184,-6.355 -14.184,-14.187 0,-7.832 6.524,-14.188 14.184,-14.188 7.832,0 14.184,6.356 14.184,14.188 z"
       style="fill:#9955ff;fill-opacity:1;fill-rule:evenodd;stroke:none"
       transform="scale(1.3333333)" /><path
       id="path35-7"
       d="m 446.258,852.977 c 0,7.832 -6.356,14.187 -14.184,14.187 -7.832,0 -14.187,-6.355 -14.187,-14.187 0,-7.832 6.527,-14.188 14.187,-14.188 7.828,0 14.184,6.356 14.184,14.188 z"
       style="fill:#9955ff;fill-opacity:1;fill-rule:evenodd;stroke:none"
       transform="scale(1.3333333)" /><text
       id="text35"
       xml:space="preserve"
       transform="matrix(1.3333333,0,0,1.3335232,627.78727,1333.7082)"><tspan
         style="font-variant:normal;font-weight:700;font-size:56.0467px;font-family:Calibri;writing-mode:lr-tb;fill:#000000;fill-opacity:1;fill-rule:nonzero;stroke:none"
         x="0"
         y="0"
         id="tspan35">M</tspan></text><text
       id="text36"
       xml:space="preserve"
       transform="matrix(1.3333333,0,0,1.3335232,693.10215,1348.6562)"><tspan
         style="font-variant:normal;font-weight:700;font-size:36.4304px;font-family:Calibri;writing-mode:lr-tb;fill:#000000;fill-opacity:1;fill-rule:nonzero;stroke:none"
         x="0 18.464224"
         y="0"
         sodipodi:role="line"
         id="tspan36">23</tspan></text><path
       id="path36-6"
       d="M 431.304,988.383 H 598.941"
       style="fill:none;stroke:#aad400;stroke-width:5.67482;stroke-linecap:butt;stroke-linejoin:round;stroke-miterlimit:4;stroke-dasharray:39.7237, 90.7971;stroke-dashoffset:2.83739;stroke-opacity:1"
       transform="scale(1.333144,1.3333333)" /><path
       id="path37-3"
       d="m 445.426,988.383 c 0,7.832 -6.356,14.187 -14.184,14.187 -7.832,0 -14.187,-6.355 -14.187,-14.187 0,-7.832 6.527,-14.188 14.187,-14.188 7.828,0 14.184,6.356 14.184,14.188 z"
       style="fill:#aad400;fill-opacity:1;fill-rule:evenodd;stroke:none"
       transform="scale(1.3333333)" /><path
       id="path38-6"
       d="m 613.039,988.383 c 0,7.832 -6.351,14.187 -14.184,14.187 -7.828,0 -14.183,-6.355 -14.183,-14.187 0,-7.832 6.523,-14.188 14.183,-14.188 7.833,0 14.184,6.356 14.184,14.188 z"
       style="fill:#aad400;fill-opacity:1;fill-rule:evenodd;stroke:none"
       transform="scale(1.3333333)" /><path
       id="path39-6"
       d="M 264.495,1044.352 H 767.414"
       style="fill:none;stroke:#d35fbc;stroke-width:5.67482;stroke-linecap:butt;stroke-linejoin:round;stroke-miterlimit:4;stroke-dasharray:204.293, 90.7971;stroke-dashoffset:2.83741;stroke-opacity:1"
       transform="scale(1.333144,1.3333333)" /><path
       id="path40-8"
       d="m 278.641,1044.352 c 0,7.832 -6.352,14.187 -14.184,14.187 -7.832,0 -14.184,-6.355 -14.184,-14.187 0,-7.832 6.524,-14.188 14.184,-14.188 7.832,0 14.184,6.356 14.184,14.188 z"
       style="fill:#d35fbc;fill-opacity:1;fill-rule:evenodd;stroke:none"
       transform="scale(1.3333333)" /><path
       id="path41-4"
       d="m 781.488,1044.352 c 0,7.832 -6.355,14.187 -14.183,14.187 -7.832,0 -14.188,-6.355 -14.188,-14.187 0,-7.832 6.528,-14.188 14.188,-14.188 7.828,0 14.183,6.356 14.183,14.188 z"
       style="fill:#d35fbc;fill-opacity:1;fill-rule:evenodd;stroke:none"
       transform="scale(1.3333333)" /><text
       id="text41"
       xml:space="preserve"
       transform="matrix(1.3333333,0,0,1.3335232,628.69344,1424.7645)"><tspan
         style="font-variant:normal;font-weight:700;font-size:56.0467px;font-family:Calibri;writing-mode:lr-tb;fill:#000000;fill-opacity:1;fill-rule:nonzero;stroke:none"
         x="0"
         y="0"
         id="tspan41">M</tspan></text><text
       id="text42"
       xml:space="preserve"
       transform="matrix(1.3333333,0,0,1.3335232,694.00833,1439.7125)"><tspan
         style="font-variant:normal;font-weight:700;font-size:36.4304px;font-family:Calibri;writing-mode:lr-tb;fill:#000000;fill-opacity:1;fill-rule:nonzero;stroke:none"
         x="0 18.464224"
         y="0"
         sodipodi:role="line"
         id="tspan42">14</tspan></text><path
       id="path42-9"
       d="m 347.815,629.238 94.732,94.735"
       style="fill:#4d4d4d;fill-opacity:1;fill-rule:nonzero;stroke:#4d4d4d;stroke-width:5.67479;stroke-linecap:butt;stroke-linejoin:round;stroke-miterlimit:4;stroke-dasharray:none;stroke-opacity:1"
       transform="scale(1.333144,1.3333333)" /><path
       id="path43-6"
       d="m 271.312,659.398 v 30.004"
       style="fill:none;stroke:#000000;stroke-width:2.83741;stroke-linecap:butt;stroke-linejoin:round;stroke-miterlimit:4;stroke-dasharray:none;stroke-opacity:1"
       transform="scale(1.333144,1.3333333)" /><path
       id="path44-5"
       d="m -651.215,271.312 -12.269,7.091 v -14.186 z"
       style="fill:#000000;fill-opacity:1;fill-rule:evenodd;stroke:#000000;stroke-width:1.8916;stroke-linecap:butt;stroke-linejoin:miter;stroke-miterlimit:4;stroke-dasharray:none;stroke-opacity:1"
       transform="matrix(0,-1.3333333,1.333144,0,0,0)" /><path
       id="path45-3"
       d="m 438.191,679.324 v -30"
       style="fill:none;stroke:#000000;stroke-width:2.83741;stroke-linecap:butt;stroke-linejoin:round;stroke-miterlimit:4;stroke-dasharray:none;stroke-opacity:1"
       transform="scale(1.333144,1.3333333)" /><path
       id="path46-7"
       d="m 687.512,-438.191 -12.274,7.094 v -14.185 z"
       style="fill:#000000;fill-opacity:1;fill-rule:evenodd;stroke:#000000;stroke-width:1.8916;stroke-linecap:butt;stroke-linejoin:miter;stroke-miterlimit:4;stroke-dasharray:none;stroke-opacity:1"
       transform="matrix(0,1.3333333,-1.333144,0,0,0)" /><path
       id="path47-3"
       d="m 464.336,110.746 48.407,-10e-4 c 3.182,0.002 5.743,2.562 5.745,5.744 l -0.002,48.408 c 0,3.18 -2.561,5.741 -5.741,5.741 l -48.408,0.001 c -3.182,-0.001 -5.742,-2.562 -5.744,-5.744 l 0.002,-48.408 c -0.002,-3.182 2.559,-5.742 5.741,-5.741 z"
       style="fill:#ffb380;fill-opacity:1;fill-rule:nonzero;stroke:#ffffff;stroke-width:1.00317;stroke-linecap:butt;stroke-linejoin:round;stroke-miterlimit:4;stroke-dasharray:none;stroke-opacity:1"
       transform="matrix(1.333144,1.3333333,-1.333144,1.3333333,0,0)" /><path
       d="M 347.741,572.813 V 685.664"
       style="opacity:0.5;fill:none;stroke:#ffffff;stroke-width:5.67482;stroke-linecap:butt;stroke-linejoin:round;stroke-miterlimit:4;stroke-dasharray:none;stroke-opacity:1"
       transform="scale(1.333144,1.3333333)"
       clip-path="url(#clipPath48-4)"
       id="path49-5" /><path
       id="path50-0"
       d="m 229.852,714.184 69.211,-0.094 c 0,0 -0.008,34.199 -33.079,34.199 -36.015,0 -36.132,-34.109 -36.132,-34.109 z"
       style="fill:#1a1a1a;fill-opacity:0.998192;fill-rule:nonzero;stroke:none"
       transform="scale(1.3333333)" /><path
       id="path51-0"
       d="m 397.469,714.184 69.207,-0.094 c 0,0 -0.004,34.199 -33.074,34.199 -36.02,0 -36.133,-34.109 -36.133,-34.109 z"
       style="fill:#1a1a1a;fill-opacity:0.998192;fill-rule:nonzero;stroke:none"
       transform="scale(1.3333333)" /><path
       id="path52-8"
       d="m 801.906,714.184 -69.207,-0.094 c 0,0 0.004,34.199 33.074,34.199 36.02,0 36.133,-34.109 36.133,-34.109 z"
       style="fill:#1a1a1a;fill-opacity:0.998192;fill-rule:nonzero;stroke:none"
       transform="scale(1.3333333)" /><path
       id="path53-0"
       d="m 672.002,641.418 -94.736,94.734"
       style="fill:#4d4d4d;fill-opacity:1;fill-rule:nonzero;stroke:#4d4d4d;stroke-width:5.67479;stroke-linecap:butt;stroke-linejoin:round;stroke-miterlimit:4;stroke-dasharray:none;stroke-opacity:1"
       transform="scale(1.333144,1.3333333)" /><path
       id="path54-3"
       d="m 634.164,714.184 -69.207,-0.094 c 0,0 0.004,34.199 33.074,34.199 36.02,0 36.133,-34.109 36.133,-34.109 z"
       style="fill:#1a1a1a;fill-opacity:0.998192;fill-rule:nonzero;stroke:none"
       transform="scale(1.3333333)" /><path
       id="path55-6"
       d="m -50.796,626.824 h 48.405 c 3.184,0 5.745,2.56 5.745,5.744 v 48.406 c 0,3.184 -2.561,5.745 -5.743,5.743 l -48.408,0.002 c -3.182,-0.002 -5.742,-2.563 -5.744,-5.745 l 0.002,-48.407 c 0,-3.18 2.561,-5.741 5.743,-5.743 z"
       style="fill:#ffb380;fill-opacity:1;fill-rule:nonzero;stroke:#ffffff;stroke-width:1.00317;stroke-linecap:butt;stroke-linejoin:round;stroke-miterlimit:4;stroke-dasharray:none;stroke-opacity:1"
       transform="matrix(-1.333144,1.3333333,1.333144,1.3333333,0,0)" /><g
       opacity="0.5"
       id="g57"><path
         d="M 683.363,573.754 V 686.602"
         style="fill:none;stroke:#ffffff;stroke-width:5.67482;stroke-linecap:butt;stroke-linejoin:round;stroke-miterlimit:4;stroke-dasharray:none;stroke-opacity:1"
         transform="scale(1.333144,1.3333333)"
         clip-path="url(#clipPath56-1)"
         id="path57-0" /></g><path
       id="path58-4"
       d="m 597.183,659.398 v 30.004"
       style="fill:none;stroke:#000000;stroke-width:2.83741;stroke-linecap:butt;stroke-linejoin:round;stroke-miterlimit:4;stroke-dasharray:none;stroke-opacity:1"
       transform="scale(1.333144,1.3333333)" /><path
       id="path59-1"
       d="m -651.215,597.183 -12.269,7.094 v -14.185 z"
       style="fill:#000000;fill-opacity:1;fill-rule:evenodd;stroke:#000000;stroke-width:1.8916;stroke-linecap:butt;stroke-linejoin:miter;stroke-miterlimit:4;stroke-dasharray:none;stroke-opacity:1"
       transform="matrix(0,-1.3333333,1.333144,0,0,0)" /><path
       id="path60-75"
       d="m 764.062,679.324 v -30"
       style="fill:none;stroke:#000000;stroke-width:2.83741;stroke-linecap:butt;stroke-linejoin:round;stroke-miterlimit:4;stroke-dasharray:none;stroke-opacity:1"
       transform="scale(1.333144,1.3333333)" /><path
       id="path61-3"
       d="m 687.512,-764.062 -12.274,7.091 v -14.186 z"
       style="fill:#000000;fill-opacity:1;fill-rule:evenodd;stroke:#000000;stroke-width:1.8916;stroke-linecap:butt;stroke-linejoin:miter;stroke-miterlimit:4;stroke-dasharray:none;stroke-opacity:1"
       transform="matrix(0,1.3333333,-1.333144,0,0,0)" /><text
       id="text64"
       xml:space="preserve"
       transform="scale(0.9999288,1.0000712)"
       x="445.66666"
       y="517.84827"
       style="font-size:16.0011px;stroke-width:1.33343"><tspan
         style="font-variant:normal;font-weight:700;font-size:74.7343px;font-family:Calibri;writing-mode:lr-tb;fill:#000000;fill-opacity:1;fill-rule:nonzero;stroke:none;stroke-width:1.33343"
         x="445.66666"
         y="517.84827"
         id="tspan64">A</tspan></text><text
       id="text71"
       xml:space="preserve"
       transform="scale(0.9999288,1.0000712)"
       x="189.07138"
       y="451.79269"
       style="font-size:16.0011px;stroke-width:1.33343"><tspan
         style="font-variant:normal;font-weight:700;font-size:74.7343px;font-family:Calibri;writing-mode:lr-tb;fill:#000000;fill-opacity:1;fill-rule:nonzero;stroke:none;stroke-width:1.33343"
         x="406.67355"
         y="1153.3586"
         id="tspan72">M</tspan></text><text
       id="text72"
       xml:space="preserve"
       transform="matrix(1.3333333,0,0,1.3335232,470.79136,1168.3887)"><tspan
         style="font-variant:normal;font-weight:700;font-size:36.4304px;font-family:Calibri;writing-mode:lr-tb;fill:#000000;fill-opacity:1;fill-rule:nonzero;stroke:none"
         x="0 18.464224"
         y="0"
         sodipodi:role="line"
         id="tspan73">12</tspan></text><path
       id="path206"
       d="m 583.77251,512.95224 -31.15543,-8.33474 22.816,-22.81634 z"
       style="fill:#4d4d4d;fill-opacity:1;fill-rule:evenodd;stroke:#4d4d4d;stroke-width:2.52196;stroke-linecap:butt;stroke-linejoin:miter;stroke-miterlimit:4;stroke-dasharray:none;stroke-opacity:1" /><path
       id="path207"
       d="m 823.68124,479.07415 31.15543,-8.33474 -22.816,-22.81634 z"
       style="fill:#4d4d4d;fill-opacity:1;fill-rule:evenodd;stroke:#4d4d4d;stroke-width:2.52196;stroke-linecap:butt;stroke-linejoin:miter;stroke-miterlimit:4;stroke-dasharray:none;stroke-opacity:1" /><text
       id="text207"
       xml:space="preserve"
       transform="scale(0.9999288,1.0000712)"
       x="887.8479"
       y="517.84827"
       style="font-size:16.0011px;stroke-width:1.33343"><tspan
         style="font-variant:normal;font-weight:700;font-size:74.7343px;font-family:Calibri;writing-mode:lr-tb;fill:#000000;fill-opacity:1;fill-rule:nonzero;stroke:none;stroke-width:1.33343"
         x="887.8479"
         y="517.84827"
         id="tspan207">B</tspan></text><path
       id="path208"
       d="m 419.96275,349.11559 -31.15543,-8.33474 22.816,-22.81634 z"
       style="fill:#4d4d4d;fill-opacity:1;fill-rule:evenodd;stroke:#4d4d4d;stroke-width:2.52196;stroke-linecap:butt;stroke-linejoin:miter;stroke-miterlimit:4;stroke-dasharray:none;stroke-opacity:1" /><path
       id="path209"
       d="m 953.61632,349.11775 8.33474,-31.15543 22.81634,22.816 z"
       style="fill:#4d4d4d;fill-opacity:1;fill-rule:evenodd;stroke:#4d4d4d;stroke-width:2.52196;stroke-linecap:butt;stroke-linejoin:miter;stroke-miterlimit:4;stroke-dasharray:none;stroke-opacity:1" /></g><g
     id="g1-5"
     inkscape:groupmode="layer"
     inkscape:label="1"
     transform="matrix(0.26458333,0,0,0.26458332,345.64016,-45.781703)"><path
       id="path215"
       d="m -694.74361,485.57332 c -5.31657,5.31733 -5.31657,13.88 0,19.19733 l 54.9322,54.94267 c 5.31925,5.31733 13.8807,5.31733 19.19861,0.001 5.31791,-5.31866 5.31791,-13.88133 0,-19.2 l -54.9322,-54.94266 c -5.31791,-5.316 -13.88069,-5.31734 -19.19861,10e-4 z"
       style="fill:#ac93a7;fill-opacity:1;fill-rule:nonzero;stroke:#000000;stroke-width:1.46799;stroke-linecap:round;stroke-linejoin:round;stroke-miterlimit:4;stroke-dasharray:none;stroke-opacity:1" /><text
       id="text215"
       xml:space="preserve"
       transform="matrix(0.70705644,-0.70715713,0.70705644,0.70715713,0,0)"
       x="-875.3692"
       y="-157.82664"
       style="font-size:16px;stroke-width:1.33333"><tspan
         style="font-variant:normal;font-weight:700;font-size:74.7343px;font-family:Calibri;writing-mode:lr-tb;fill:#000000;fill-opacity:1;fill-rule:nonzero;stroke:none;stroke-width:1.33333"
         x="-875.3692 -835.59363"
         y="-157.82664"
         sodipodi:role="line"
         id="tspan215">PC</tspan></text></g></svg>
